<svg class="MuiSvgIcon-root MuiSvgIcon-fontSizeMedium css-y92jzh" focusable="false" aria-hidden="true" viewBox="0 0 206 22"><g fill="#202020" transform="matrix(0.70068026 0 0 0.70068026 -0 0.13945568)"><path id="outline" d="M202.54 0H290.54C291.336 0 292.099 0.316083 292.661 0.878693C293.224 1.4413 293.54 2.20435 293.54 3V28C293.54 28.7956 293.224 29.5587 292.661 30.1213C292.099 30.6839 291.336 31 290.54 31H202.54C201.744 31 200.981 30.6839 200.419 30.1213C199.856 29.5587 199.54 28.7956 199.54 28V3C199.54 2.20435 199.856 1.4413 200.419 0.878693C200.981 0.316083 201.744 0 202.54 0V0Z"></path><path id="p1" d="M0 26.5399H2.85999V17.2599C4.05191 17.2841 5.24193 17.153 6.39999 16.8699C7.26833 16.5789 7.98693 15.9573 8.39999 15.1399C8.99804 13.9803 9.27756 12.6828 9.20999 11.3799C9.20999 7.37988 7.69334 5.37988 4.66 5.37988H0V26.5399ZM2.85999 7.53989C3.33864 7.47782 3.82496 7.51601 4.28806 7.65201C4.75115 7.78801 5.18091 8.01887 5.54999 8.3299C6.09549 9.22989 6.33411 10.2826 6.22998 11.3299C6.22998 12.8099 5.96998 13.7899 5.44998 14.2699C4.70843 14.8288 3.78425 15.0892 2.85999 14.9999V7.53989Z"></path><path id="e1" d="M27.0404 24.2001H22.2104V16.9101H26.5604V14.5101H22.2104V7.80014H26.9104V5.39014H19.4004V26.5401H27.0504L27.0404 24.2001Z"></path><path id="a1" d="M43.4 5.39014H41.06L36.5 26.5401H39.22L40 22.3601H44.48L45.25 26.5401H48L43.4 5.39014ZM40.4 20.2201L42.16 10.2201H42.23L44.09 20.2201H40.4Z"></path><path id="r1" d="M63.8298 16.3801C64.8008 16.0476 65.6251 15.3861 66.1599 14.5101C66.7005 13.3515 66.9445 12.0765 66.8698 10.8001C66.8698 7.20014 65.2599 5.39014 62.0399 5.39014H58.0898V26.5401H60.9498V16.6101H61.1898L64.5098 26.5401H67.5098L63.8298 16.3801ZM60.9498 7.60013H61.1098C61.5293 7.55587 61.9534 7.60562 62.3512 7.74573C62.749 7.88584 63.1107 8.11279 63.4099 8.41013C63.9327 9.21937 64.1687 10.1808 64.0798 11.1401C64.1881 12.1141 63.9237 13.093 63.3398 13.8801C62.6794 14.4499 61.8197 14.734 60.9498 14.6701V7.60013Z"></path><path id="l1" d="M84.9596 24.1701H80.1596V5.39014H77.3096V26.5401H84.9596V24.1701Z"></path><path id="a2" d="M105.54 5.39014H103.2L98.6396 26.5401H101.4L102.19 22.3601H106.67L107.44 26.5401H110.19L105.54 5.39014ZM102.54 20.2201L104.3 10.2201H104.4L106.25 20.2201H102.54Z"></path><path id="b1" d="M120.29 26.5399H124.54C125.182 26.5789 125.824 26.4764 126.422 26.2397C127.02 26.0029 127.559 25.6377 128 25.1699C128.871 24.0679 129.303 22.6817 129.21 21.2799C129.21 18.2132 128.097 16.4532 125.87 15.9999C127.917 15.2799 128.94 13.5799 128.94 10.8999C129.067 9.3952 128.605 7.89991 127.65 6.7299C127.108 6.24809 126.475 5.88098 125.787 5.65068C125.1 5.42038 124.373 5.33168 123.65 5.38991H120.31L120.29 26.5399ZM125.58 8.35991C126.098 9.24779 126.322 10.2769 126.22 11.2999C126.324 12.283 126.06 13.2697 125.48 14.0699C125.164 14.3623 124.792 14.5881 124.386 14.7341C123.981 14.8802 123.55 14.9433 123.12 14.9199V7.5699C123.563 7.50998 124.014 7.54983 124.439 7.68651C124.865 7.82319 125.255 8.05327 125.58 8.35991V8.35991ZM125.52 17.8799C126.099 18.7672 126.356 19.8259 126.25 20.8799C126.366 21.8577 126.109 22.8434 125.53 23.6399C124.848 24.1809 123.988 24.4451 123.12 24.3799V17.0099C123.559 16.9736 124.001 17.0325 124.415 17.1827C124.829 17.3328 125.206 17.5707 125.52 17.8799V17.8799Z"></path><path id="y1" d="M146.34 5.38986L143.67 14.8899H143.61L140.98 5.35986H138.15L142.15 17.6299V26.5099H145V17.5099L149.12 5.36987L146.34 5.38986Z"></path><path id="s1" d="M165.64 5.81C164.71 5.33393 163.684 5.07736 162.64 5.06C161.989 5.0369 161.341 5.15347 160.739 5.40186C160.137 5.65025 159.595 6.02469 159.15 6.5C158.226 7.52926 157.742 8.87857 157.8 10.26C157.776 11.1858 157.96 12.1051 158.34 12.95C158.782 13.8442 159.333 14.6805 159.98 15.44L161.88 17.79C162.438 18.4369 162.937 19.1331 163.37 19.87C163.642 20.3808 163.783 20.9512 163.78 21.53C163.793 21.9187 163.729 22.3063 163.592 22.6702C163.455 23.0341 163.246 23.3671 162.98 23.65C162.715 23.9247 162.396 24.1406 162.043 24.2837C161.69 24.4267 161.31 24.4936 160.93 24.48C160.388 24.4745 159.855 24.3481 159.37 24.11C159.005 23.9515 158.654 23.7643 158.32 23.55L158.22 23.5V26.04C159.193 26.4828 160.241 26.7373 161.31 26.79C161.996 26.8165 162.681 26.6994 163.32 26.4463C163.958 26.1932 164.537 25.8096 165.02 25.32C165.495 24.799 165.862 24.1884 166.099 23.5239C166.336 22.8594 166.438 22.1544 166.4 21.45C166.421 20.2717 166.12 19.1099 165.53 18.09C164.772 16.882 163.93 15.7291 163.01 14.64C162.215 13.7443 161.505 12.7768 160.89 11.75C160.6 11.2289 160.438 10.6461 160.42 10.05C160.413 9.69146 160.479 9.33526 160.615 9.00336C160.751 8.67146 160.953 8.37087 161.21 8.12003C161.455 7.86456 161.75 7.6625 162.077 7.52655C162.404 7.39061 162.756 7.3237 163.11 7.33002C163.993 7.37194 164.854 7.62573 165.62 8.07001L165.64 5.81Z"></path><path id="s2" d="M183.4 5.81C182.471 5.33393 181.444 5.07736 180.4 5.06C179.749 5.0369 179.101 5.15347 178.499 5.40186C177.897 5.65025 177.355 6.02469 176.91 6.5C175.987 7.52926 175.503 8.87857 175.56 10.26C175.536 11.1858 175.721 12.1051 176.1 12.95C176.543 13.8442 177.093 14.6805 177.74 15.44L179.64 17.79C180.199 18.4369 180.697 19.1331 181.13 19.87C181.402 20.3808 181.543 20.9512 181.54 21.53C181.554 21.9187 181.49 22.3063 181.353 22.6702C181.215 23.0341 181.007 23.3671 180.74 23.65C180.476 23.9247 180.157 24.1406 179.804 24.2837C179.451 24.4267 179.071 24.4936 178.69 24.48C178.149 24.4745 177.616 24.3481 177.13 24.11C176.766 23.9515 176.415 23.7643 176.08 23.55L175.98 23.5V26.04C176.954 26.4828 178.002 26.7373 179.07 26.79C179.757 26.8171 180.442 26.7003 181.081 26.4472C181.72 26.194 182.298 25.8101 182.78 25.32C183.258 24.807 183.63 24.2044 183.873 23.547C184.117 22.8897 184.228 22.1906 184.2 21.49C184.222 20.3117 183.921 19.1499 183.33 18.13C182.573 16.922 181.731 15.7691 180.81 14.68C180.016 13.7844 179.306 12.8169 178.69 11.79C178.4 11.2689 178.239 10.6861 178.22 10.09C178.213 9.73146 178.28 9.37527 178.416 9.04337C178.552 8.71147 178.754 8.41085 179.01 8.16001C179.256 7.90502 179.551 7.70329 179.878 7.56738C180.205 7.43148 180.556 7.36431 180.91 7.37003C181.794 7.41195 182.655 7.66573 183.42 8.11002L183.4 5.81Z"></path><path id="box" d="M216.77 14.52C216.142 13.8088 215.58 13.0423 215.09 12.23C214.859 11.8165 214.732 11.3533 214.72 10.88C214.715 10.5964 214.767 10.3147 214.874 10.0519C214.98 9.78897 215.139 9.55027 215.34 9.35001C215.535 9.14657 215.769 8.98493 216.029 8.87491C216.288 8.76489 216.568 8.7088 216.85 8.71003C217.555 8.74267 218.242 8.94872 218.85 9.31V7.45002C218.107 7.06665 217.285 6.86124 216.45 6.85001C215.932 6.83064 215.417 6.92339 214.939 7.12189C214.461 7.32039 214.031 7.61993 213.68 8.00001C212.945 8.82185 212.561 9.89863 212.61 11C212.59 11.7356 212.734 12.4663 213.03 13.14C213.382 13.8558 213.819 14.5272 214.33 15.14L215.85 17C216.288 17.5161 216.683 18.068 217.03 18.65C217.248 19.0554 217.362 19.5093 217.36 19.97C217.37 20.28 217.318 20.5889 217.209 20.879C217.099 21.1691 216.933 21.4345 216.72 21.66C216.509 21.8772 216.255 22.048 215.974 22.1617C215.693 22.2753 215.392 22.3292 215.09 22.32C214.659 22.3147 214.235 22.2121 213.85 22.02C213.562 21.8959 213.284 21.7487 213.02 21.58H212.94V23.58C213.713 23.9272 214.543 24.1273 215.39 24.17C215.936 24.1914 216.48 24.0984 216.988 23.8969C217.496 23.6954 217.957 23.3899 218.34 23C219.095 22.1877 219.498 21.1089 219.46 20C219.478 19.0668 219.239 18.1467 218.77 17.34C218.175 16.3509 217.506 15.4082 216.77 14.52ZM226.5 9.06H229.06V23.94H231.32V9.06H233.9V7.15003H226.5V9.06ZM246.1 6.82001C245.422 6.75713 244.739 6.87156 244.118 7.15204C243.498 7.43253 242.96 7.86946 242.56 8.42002C241.84 9.49335 241.48 11.8533 241.48 15.5C241.405 17.3657 241.563 19.2334 241.95 21.06C242.163 21.9566 242.665 22.758 243.38 23.34C244.205 23.8624 245.175 24.1109 246.15 24.05C247.135 24.1009 248.111 23.8307 248.93 23.28C249.67 22.6782 250.176 21.8361 250.36 20.9C250.71 18.9843 250.851 17.0362 250.78 15.09C250.78 11.97 250.47 9.81002 249.85 8.61002C249.23 7.45002 247.98 6.82001 246.1 6.82001V6.82001ZM248.4 16.25C248.4 19.03 248.17 20.73 247.73 21.35C247.563 21.622 247.331 21.8484 247.055 22.009C246.78 22.1695 246.469 22.2592 246.15 22.27C245.684 22.2858 245.229 22.126 244.875 21.8223C244.521 21.5185 244.295 21.093 244.24 20.63C243.927 18.9118 243.796 17.1656 243.85 15.42V14.5C243.774 12.967 243.939 11.4317 244.34 9.95002C244.444 9.55318 244.679 9.20345 245.008 8.95817C245.337 8.71289 245.74 8.5866 246.15 8.60001C246.51 8.59458 246.864 8.69878 247.164 8.89878C247.464 9.09878 247.696 9.38514 247.83 9.72001C248.21 10.4733 248.4 12.4433 248.4 15.63V16.25ZM265.73 14.38C266.156 13.4611 266.348 12.4512 266.29 11.44C266.29 8.58001 265.013 7.15003 262.46 7.15003H259.32V23.94H261.59V16.06H261.78L264.42 23.94H266.77L263.88 15.87C264.655 15.6062 265.313 15.079 265.74 14.38H265.73ZM261.59 14.52V8.90003H261.72C262.052 8.86364 262.387 8.90224 262.702 9.01301C263.017 9.12378 263.304 9.30388 263.54 9.54001C263.957 10.1827 264.147 10.9467 264.08 11.71C264.161 12.4848 263.951 13.2621 263.49 13.89C262.966 14.3379 262.288 14.5638 261.6 14.52H261.59ZM276.87 22.08V16.29H280.33V14.38H276.87V9.06H280.61V7.15003H274.61V23.94H280.69V22.08H276.87Z" fill="white"></path></g></svg>